<?xml version="1.0" encoding="utf-8"?>
<!-- Generator: Adobe Illustrator 16.0.4, SVG Export Plug-In . SVG Version: 6.00 Build 0)  -->
<!DOCTYPE svg PUBLIC "-//W3C//DTD SVG 1.1//EN" "http://www.w3.org/Graphics/SVG/1.1/DTD/svg11.dtd">
<svg version="1.1"
	 id="Layer_1" xmlns:rdf="http://www.w3.org/1999/02/22-rdf-syntax-ns#" xmlns:inkscape="http://www.inkscape.org/namespaces/inkscape" xmlns:sodipodi="http://inkscape.sourceforge.net/DTD/sodipodi-0.dtd" xmlns:cc="http://web.resource.org/cc/" xmlns:svg="http://www.w3.org/2000/svg" xmlns:dc="http://purl.org/dc/elements/1.1/" sodipodi:version="0.32" sodipodi:docname="tasto04.svg" sodipodi:docbase="F:\openclip\svg da inviare" inkscape:version="0.42"
	 xmlns="http://www.w3.org/2000/svg" xmlns:xlink="http://www.w3.org/1999/xlink" x="0px" y="0px" width="136.208px"
	 height="132.725px" viewBox="0 0 136.208 132.725" enable-background="new 0 0 136.208 132.725" xml:space="preserve">
<sodipodi:namedview  id="base" bordercolor="#666666" borderopacity="1.0" inkscape:zoom="2.7123957" pagecolor="#ffffff" inkscape:cx="68.103996" inkscape:cy="66.362000" inkscape:window-y="29" inkscape:window-x="22" inkscape:window-width="787" inkscape:pageopacity="0.0" inkscape:window-height="510" inkscape:current-layer="Layer_1" inkscape:pageshadow="2">
	</sodipodi:namedview>
<g id="g3">
	
		<radialGradient id="path10_1_" cx="40.8105" cy="97.239" r="95.4939" gradientTransform="matrix(-1 0 0 1 136.0684 0.9453)" gradientUnits="userSpaceOnUse">
		<stop  offset="0" style="stop-color:#D1F593"/>
		<stop  offset="1" style="stop-color:#81CE09"/>
	</radialGradient>
	<path id="path10" fill="url(#path10_1_)" d="M8.375,55.73c8.691,0,17.383,0,26.074,0c0.875,0,0.413-21.366,0.413-23.361
		c0.003-7.306-2.59-21.36,2.609-27.526C42.904-1.6,56.569,0.898,63.941,0.898c9.328,0,18.659,0,27.989,0
		c12.527,0,11.333,12.918,11.333,21.555c0,10.569,0,21.142,0,31.712c0,2.717,2.349,1.566,4.825,1.566c5.637,0,11.273,0,16.91,0
		c9.401,0,13.78,9.703,6.94,16.562c-5.911,5.931-11.821,11.859-17.733,17.789c-12.58,12.622-24.593,26.967-38.273,38.398
		c-8.089,8.067-15.792-0.108-21.49-5.802c-7.764-7.755-15.525-15.513-23.288-23.268C23.525,91.79,15.896,84.17,8.268,76.549
		c-4.946-4.941-11.266-11.203-4.96-18.471C4.594,56.596,6.402,55.73,8.375,55.73"/>
	<path id="path12" fill="#B2ED21" d="M120.019,75.066c-4.997,5.012-51.783,52.178-52.014,51.949
		c-9.738-9.693-19.476-19.385-29.213-29.078c-5.803-5.774-11.604-11.548-17.404-17.322c-3.57-3.553-10.455-8.646-7.891-14.462
		c-4.211,0-8.42,0-12.631,0c0.689,5.384,6.758,9.637,10.336,13.197c7.424,7.393,14.848,14.785,22.271,22.178
		c7.081,7.053,14.164,14.106,21.247,21.156c3.833,3.817,7.758,9.053,13.518,8.982c5.548,0.066,9.148-4.643,12.825-8.333
		c6.896-6.918,13.792-13.835,20.688-20.754c7.461-7.484,14.924-14.973,22.388-22.458c3.696-3.711,10.323-8.367,11.051-13.968
		c-4.239,0-8.476,0-12.715,0C123.743,69.189,122.192,72.878,120.019,75.066"/>
	<path id="path14" fill="#67BA06" d="M126.738,55.73c-7.671,0-15.342,0-23.013,0c-0.992,0-0.462-17.188-0.462-18.898
		c0-8.195,0-16.393,0-24.587c0-10.864-9.978-11.348-17.978-11.348c-10.133,0-20.263,0-30.393,0c-7.737,0-18.258-1.126-20.113,9.094
		c-1.287,7.095-0.177,15.213-0.175,22.374c0,7.788,0,15.577,0.002,23.365c-8.394,0-16.784,0-25.177,0
		c-3.096,0-5.95,1.309-7.473,4.088c-0.658,1.201-2.494,6.336-0.287,6.336c2.555,0,5.105,0,7.658,0c3.816,0,3.098-0.059,5.834-2.062
		c3.065-2.247,8.809-1.367,12.393-1.367c5.119,0,10.238,0,15.359,0c0.967,0,0.455-21.364,0.455-23.413
		c0-7.354-2.377-20.491,1.598-27.262c4.045-6.891,21.158-3.776,27.613-3.776c9.088,0,22.142-2.461,22.142,10.68
		c0,9.255,0,18.511,0,27.766c0,5.247,0,10.496,0,15.745c0,0.553,14.563,0.262,16.051,0.262c2.304,0,4.819-0.234,7.108,0.167
		c1.955,0.343,3.797,1.363,4.593,3.264c1.026,0.408,3.118,0,4.196,0c1.334,0,7.574,0.91,8.519,0
		C135.893,60.703,132.5,55.73,126.738,55.73"/>
	<path id="path16" fill="#739B07" d="M76.565,129.119c12.76-12.801,25.518-25.602,38.277-38.402
		c5.91-5.931,11.822-11.861,17.732-17.792c3.318-3.329,4.65-8.051,2.783-12.57c-2.504-6.049-8.719-5.521-14.104-5.521
		c-5.377,0-10.754,0-16.133,0c-1.965,0-0.961-6.644-0.961-8.338c0-10.94,0-21.884,0-32.823C104.161,2.601,96.043,0,86.79,0
		C75.677,0,64.567,0,53.458,0C44.952,0,33.97,0.436,33.97,12.059c0,9.182-0.001,18.363-0.001,27.545c0,4.33,0,8.659,0,12.989
		c0,3.604-2.66,2.239-5.996,2.239C18.723,54.833,0,50.906,0,65.107c0,6.398,6.319,10.761,10.438,14.876
		c7.75,7.743,15.502,15.486,23.254,23.23c6.921,6.92,13.845,13.836,20.769,20.755C60.398,129.899,68.4,137.253,76.565,129.119
		 M133.7,61.039c3.232,7.813-5.47,13.708-10.197,18.451c-8.158,8.185-16.318,16.372-24.478,24.558
		c-6.955,6.978-13.911,13.953-20.866,20.932c-5.324,5.34-11.826,8.319-18.174,1.976c-14.423-14.411-28.846-28.821-43.27-43.232
		c-4.129-4.123-9.541-8.205-12.967-12.955c-4.395-4.391-1.526-14.142,5.025-14.142c4.92,0,9.838,0,14.758,0
		c4.041,0,8.082,0,12.125,0c0.221,0,0.102-6.219,0.102-6.697c0-11.101,0.003-22.201,0.003-33.302
		c0-8.832,3.202-14.835,12.965-14.835c10.776,0,21.554,0,32.33,0c8,0,21.312-1.682,21.312,10.256c0,9.141,0,18.281,0,27.423
		c0,4.75,0,9.5,0,14.25c0,2.955-0.479,2.905,2.533,2.905C111.463,56.626,130.469,53.22,133.7,61.039"/>
</g>
</svg>
